<svg width="23" height="20" viewBox="0 0 23 20" fill="none" xmlns="http://www.w3.org/2000/svg">
<path d="M11.4984 10.9987V18.9987M11.4984 10.9987L7.49839 14.9987M11.4984 10.9987L15.4984 14.9987M3.49839 12.8977C2.75543 12.1386 2.19495 11.2204 1.85942 10.2126C1.52389 9.20487 1.42209 8.13395 1.56175 7.08101C1.7014 6.02806 2.07884 5.02071 2.66548 4.13524C3.25212 3.24978 4.03257 2.50942 4.94772 1.97026C5.86287 1.4311 6.88871 1.10726 7.94755 1.02329C9.00639 0.93931 10.0705 1.0974 11.0592 1.48557C12.0478 1.87374 12.9352 2.48182 13.6541 3.26375C14.373 4.04567 14.9045 4.98094 15.2084 5.99871H16.9984C17.9639 5.9986 18.9038 6.30903 19.6794 6.88415C20.4549 7.45927 21.0249 8.26857 21.3052 9.19251C21.5854 10.1165 21.5611 11.106 21.2357 12.0151C20.9104 12.9241 20.3013 13.7044 19.4984 14.2407" stroke="#104240" stroke-width="2" stroke-linecap="round" stroke-linejoin="round"/>
</svg>
