<svg width="64" height="64" viewBox="0 0 64 64" fill="none" xmlns="http://www.w3.org/2000/svg">
<mask id="mask0_94_35" style="mask-type:luminance" maskUnits="userSpaceOnUse" x="0" y="0" width="64" height="64">
<path d="M0 0H64V64H0V0Z" fill="white"/>
</mask>
<g mask="url(#mask0_94_35)">
<path d="M64 32C64 49.6767 49.6767 64 32 64C14.3233 64 0 49.6767 0 32C0 14.3233 14.3233 0 32 0C49.6767 0 64 14.3233 64 32Z" fill="#1D7874"/>
</g>
<path d="M51.3916 24.665L31.3467 44.7233L29.1067 46.9633C27.7117 48.3583 25.4333 48.3583 24.0383 46.9633L12.6084 35.5333C11.29 34.215 11.29 32.0767 12.6084 30.7584C13.9267 29.44 16.0634 29.44 17.3817 30.7584L26.56 39.9367L46.605 19.8917C47.9233 18.5734 50.0599 18.5734 51.3799 19.8917C52.7099 21.21 52.7099 23.3467 51.3916 24.665Z" fill="white"/>
</svg>
