<svg width="64" height="66" viewBox="0 0 64 66" fill="none" xmlns="http://www.w3.org/2000/svg">
<mask id="mask0_94_17" style="mask-type:luminance" maskUnits="userSpaceOnUse" x="29" y="29" width="35" height="37">
<path d="M29.6376 29.7785H64V65.2148H29.6376V29.7785Z" fill="white"/>
</mask>
<g mask="url(#mask0_94_17)">
<path d="M60.7248 50.3759C60.8977 49.4849 60.995 48.5705 60.995 47.6326C60.995 46.6913 60.8977 45.7769 60.7248 44.8876L63.5151 42.5755C63.8104 42.3306 63.896 41.8591 63.7014 41.5252L60.5503 36.0688C60.3607 35.7366 59.9094 35.5705 59.547 35.703L56.1359 36.9648C54.7651 35.7668 53.1628 34.8306 51.3977 34.2282L50.7903 30.651C50.7248 30.2718 50.3557 29.9597 49.9715 29.9597H43.6745C43.2903 29.9597 42.9212 30.2718 42.8557 30.651L42.2483 34.2282C40.4832 34.8322 38.8792 35.7685 37.505 36.9648L34.099 35.703C33.7383 35.5705 33.2869 35.7349 33.0923 36.0688L29.9446 41.5218C29.75 41.8557 29.8373 42.3289 30.1342 42.5738L32.9212 44.8859C32.7467 45.7752 32.6527 46.6913 32.6527 47.6309C32.6527 48.5705 32.7467 49.4866 32.9212 50.3742L30.1342 52.6846C29.8373 52.9329 29.75 53.4061 29.9446 53.7399L33.0923 59.1963C33.2852 59.5269 33.7383 59.6913 34.099 59.5587L37.505 58.2936C38.8792 59.4967 40.4832 60.4312 42.2483 61.0336L42.8557 64.6108C42.9228 64.9899 43.2886 65.3004 43.6745 65.3004H49.9715C50.3557 65.3054 50.7265 64.9899 50.7903 64.6108L51.3977 61.0336C53.1628 60.4295 54.7668 59.495 56.1393 58.2936L59.547 59.5587C59.9094 59.6913 60.3591 59.5269 60.5503 59.1963L63.7014 53.7399C63.8943 53.4061 63.8087 52.9329 63.5168 52.6846L60.7248 50.3759ZM46.8222 56.3826C41.9916 56.3826 38.0755 52.4648 38.0755 47.6309C38.0755 42.797 41.9899 38.8809 46.8222 38.8809C51.6561 38.8809 55.5738 42.797 55.5738 47.6309C55.5738 52.4648 51.6561 56.3826 46.8222 56.3826Z" fill="#1D7874"/>
</g>
<path d="M14.6611 12.8087V2.31378L1.68961 15.4094H12.0638C13.495 15.4094 14.6611 14.2433 14.6611 12.8087Z" fill="#1D7874"/>
<mask id="mask1_94_17" style="mask-type:luminance" maskUnits="userSpaceOnUse" x="0" y="0" width="46" height="62">
<path d="M0 0.785248H45.1007V61.1342H0V0.785248Z" fill="white"/>
</mask>
<g mask="url(#mask1_94_17)">
<path d="M30.4698 60.7148L27.3188 55.2567C26.8322 54.4211 26.7097 53.4497 26.8993 52.5386H7.55031C6.71474 52.5386 6.03689 51.8607 6.03689 51.0235C6.03689 50.1879 6.71474 49.5101 7.55031 49.5101H29.2181L29.6879 49.1208C29.6426 48.6225 29.6208 48.1258 29.6208 47.6326C29.6208 47.1409 29.6426 46.6409 29.6879 46.1426L28.1996 44.9111C27.6745 44.4748 27.2919 43.9144 27.0637 43.3003H7.55367C6.71642 43.3003 6.03857 42.6225 6.03857 41.7852C6.03857 40.9497 6.71642 40.2718 7.55367 40.2718H27.1996C27.2416 40.1829 27.2735 40.0873 27.3238 40L30.4698 34.5554C30.5755 34.3708 30.7215 34.2215 30.8523 34.0604H7.55367C6.71642 34.0604 6.03857 33.3826 6.03857 32.5453C6.03857 31.7097 6.71642 31.0302 7.55367 31.0302H37.7298C38.4647 31.0302 39.0503 31.5688 39.1879 32.2634C39.3121 32.203 39.4211 32.1158 39.5436 32.0554L39.8691 30.1426C40.1896 28.3037 41.8255 26.9312 43.6745 26.9312H45.0939V4.89766C45.0923 2.62753 43.25 0.785248 40.9782 0.785248H17.6896V12.8087C17.6896 15.9144 15.1661 18.4396 12.0637 18.4396H0.189575V56.6711C0.189575 58.943 2.03186 60.7852 4.30367 60.7852H30.5251C30.51 60.7601 30.4849 60.7416 30.4698 60.7148ZM22.0117 12.547H37.7298C38.5654 12.547 39.2449 13.2248 39.2449 14.0604C39.2449 14.8977 38.5654 15.5755 37.7298 15.5755H22.0117C21.1761 15.5755 20.4983 14.8977 20.4983 14.0604C20.4983 13.2248 21.1761 12.547 22.0117 12.547ZM7.55367 21.7869H37.7298C38.5654 21.7869 39.2449 22.4648 39.2449 23.302C39.2449 24.1376 38.5654 24.8154 37.7298 24.8154H7.55367C6.71642 24.8154 6.03857 24.1376 6.03857 23.302C6.03857 22.4648 6.71474 21.7869 7.55367 21.7869Z" fill="#1D7874"/>
</g>
</svg>
