<svg width="64" height="46" viewBox="0 0 64 46" fill="none" xmlns="http://www.w3.org/2000/svg">
<mask id="mask0_94_51" style="mask-type:luminance" maskUnits="userSpaceOnUse" x="21" y="16" width="43" height="30">
<path d="M21.9733 16.72H64V45.0667H21.9733V16.72Z" fill="white"/>
</mask>
<g mask="url(#mask0_94_51)">
<path d="M63.1585 29.46L49.2218 17.5133C49.0784 17.39 48.9184 17.2883 48.7451 17.21C48.5718 17.1316 48.3918 17.08 48.2034 17.0533C48.0134 17.0266 47.8251 17.0283 47.6368 17.055C47.4484 17.0833 47.2684 17.1366 47.0951 17.2166C46.9234 17.295 46.7651 17.3983 46.6201 17.5233C46.4768 17.6483 46.3534 17.79 46.2518 17.95C46.1484 18.11 46.0701 18.2816 46.0168 18.465C45.9634 18.6466 45.9368 18.8333 45.9368 19.025V24.9966H24.0368C23.9051 24.9966 23.7768 25.01 23.6484 25.035C23.5201 25.06 23.3951 25.0983 23.2734 25.1483C23.1534 25.1983 23.0384 25.26 22.9301 25.3316C22.8218 25.405 22.7201 25.4883 22.6284 25.58C22.5351 25.6716 22.4534 25.7733 22.3801 25.8816C22.3084 25.99 22.2468 26.105 22.1968 26.2266C22.1468 26.3466 22.1084 26.4716 22.0834 26.6C22.0584 26.7283 22.0451 26.8566 22.0451 26.9883V34.9516C22.0451 35.0833 22.0584 35.2116 22.0834 35.34C22.1084 35.4683 22.1468 35.5933 22.1968 35.7133C22.2468 35.835 22.3084 35.95 22.3801 36.0583C22.4534 36.1666 22.5351 36.2683 22.6284 36.36C22.7201 36.4533 22.8218 36.535 22.9301 36.6083C23.0384 36.68 23.1534 36.7416 23.2734 36.7916C23.3951 36.8416 23.5201 36.88 23.6484 36.905C23.7768 36.93 23.9051 36.9433 24.0368 36.9433H45.9368V42.915C45.9368 43.1066 45.9634 43.2933 46.0168 43.475C46.0701 43.6583 46.1484 43.83 46.2501 43.99C46.3534 44.15 46.4768 44.2933 46.6201 44.4183C46.7634 44.5433 46.9218 44.645 47.0951 44.725C47.2684 44.805 47.4484 44.8583 47.6368 44.885C47.8251 44.9133 48.0134 44.9133 48.2034 44.8866C48.3918 44.8616 48.5718 44.8083 48.7451 44.73C48.9184 44.6516 49.0784 44.55 49.2218 44.4266L63.1585 32.48C63.2685 32.3866 63.3668 32.2833 63.4535 32.1683C63.5401 32.055 63.6135 31.9316 63.6735 31.8016C63.7335 31.6716 63.7785 31.5366 63.8085 31.395C63.8401 31.255 63.8551 31.1133 63.8551 30.97C63.8551 30.8266 63.8401 30.685 63.8085 30.545C63.7785 30.4033 63.7335 30.2683 63.6735 30.1383C63.6135 30.0083 63.5401 29.885 63.4535 29.7716C63.3668 29.6566 63.2685 29.5533 63.1585 29.46Z" fill="#68A5A2"/>
</g>
<mask id="mask1_94_51" style="mask-type:luminance" maskUnits="userSpaceOnUse" x="0" y="0" width="43" height="30">
<path d="M0 0.933319H42.0267V29.0933H0V0.933319Z" fill="white"/>
</mask>
<g mask="url(#mask1_94_51)">
<path d="M41.955 19.025V11.06C41.955 10.93 41.9416 10.8 41.9166 10.6717C41.8916 10.5433 41.8533 10.42 41.8033 10.2983C41.7533 10.1783 41.6916 10.0633 41.62 9.95334C41.5466 9.84501 41.465 9.74501 41.3716 9.65168C41.28 9.56001 41.1783 9.47668 41.07 9.40501C40.9616 9.33168 40.8466 9.27001 40.7266 9.22001C40.605 9.17001 40.48 9.13334 40.3516 9.10834C40.2233 9.08168 40.095 9.07001 39.9633 9.07001H18.0633V3.09668C18.0633 2.90668 18.0366 2.72001 17.9833 2.53668C17.93 2.35501 17.8516 2.18334 17.7483 2.02334C17.6466 1.86334 17.5233 1.72001 17.38 1.59501C17.235 1.47001 17.0766 1.36835 16.905 1.28835C16.7316 1.20835 16.5516 1.15501 16.3633 1.12835C16.175 1.10001 15.9866 1.10001 15.7966 1.12501C15.6083 1.15168 15.4283 1.20501 15.255 1.28335C15.0816 1.36168 14.9216 1.46168 14.7783 1.58668L0.841625 13.5317C0.731626 13.625 0.633292 13.7283 0.546625 13.8433C0.459959 13.9583 0.386625 14.08 0.326625 14.21C0.266625 14.3417 0.221625 14.4767 0.191625 14.6167C0.159958 14.7567 0.144958 14.8983 0.144958 15.0417C0.144958 15.1867 0.159958 15.3283 0.191625 15.4683C0.221625 15.6083 0.266625 15.7433 0.326625 15.8733C0.386625 16.005 0.459959 16.1267 0.546625 16.2417C0.633292 16.3567 0.731626 16.46 0.841625 16.5533L14.7783 28.4983C14.9216 28.6233 15.0816 28.7233 15.255 28.8017C15.4283 28.88 15.6083 28.9333 15.7966 28.9583C15.9866 28.985 16.175 28.985 16.3633 28.9567C16.5516 28.93 16.7316 28.875 16.905 28.7967C17.0766 28.7167 17.235 28.615 17.38 28.49C17.5233 28.365 17.6466 28.2217 17.7483 28.0617C17.8516 27.9017 17.93 27.73 17.9833 27.5483C18.0366 27.365 18.0633 27.1783 18.0633 26.9883V21.015H39.9633C40.095 21.015 40.2233 21.0033 40.3516 20.9767C40.48 20.9517 40.605 20.9133 40.7266 20.8633C40.8466 20.8133 40.9616 20.7533 41.07 20.68C41.1783 20.6067 41.28 20.525 41.3716 20.4317C41.465 20.34 41.5466 20.24 41.62 20.13C41.6916 20.0217 41.7533 19.9067 41.8033 19.7867C41.8533 19.665 41.8916 19.5417 41.9166 19.4133C41.9416 19.285 41.955 19.155 41.955 19.025Z" fill="#1D7874"/>
</g>
</svg>
