<svg width="162" height="36" viewBox="0 0 162 36" fill="none" xmlns="http://www.w3.org/2000/svg">
<path d="M52.1758 9.24197C53.9339 9.24197 55.4765 9.59427 56.8002 10.2955C58.1205 10.9898 59.1432 11.9715 59.8649 13.237C60.5935 14.4957 60.9594 15.9563 60.9594 17.6152C60.9594 19.2501 60.5935 20.7038 59.8649 21.9796C59.1432 23.2589 58.1171 24.2474 56.7865 24.9486C55.4628 25.6429 53.927 25.9884 52.1758 25.9884H45.8959V9.24197H52.1758ZM51.9158 22.4585C53.455 22.4585 54.6556 22.0412 55.5141 21.1998C56.3692 20.3515 56.8002 19.1578 56.8002 17.6152C56.8002 16.076 56.3692 14.8754 55.5141 14.0169C54.6556 13.1515 53.455 12.7171 51.9158 12.7171H49.973V22.4585H51.9158Z" fill="#1D7874"/>
<path d="M61.2872 19.3117C61.2872 17.9435 61.5403 16.7464 62.0534 15.7134C62.5733 14.6736 63.2779 13.8767 64.1741 13.3191C65.0668 12.765 66.0622 12.4845 67.1567 12.4845C68.0939 12.4845 68.9148 12.6761 69.6194 13.0592C70.3308 13.4423 70.8781 13.9451 71.2612 14.5642V12.6761H75.3384V25.9884H71.2612V24.1003C70.8576 24.7228 70.3035 25.2222 69.592 25.6053C68.8874 25.9884 68.0665 26.1799 67.1293 26.1799C66.0519 26.1799 65.0668 25.8995 64.1741 25.3317C63.2779 24.7673 62.5733 23.9635 62.0534 22.9237C61.5403 21.8839 61.2872 20.6799 61.2872 19.3117ZM71.2612 19.3254C71.2612 18.3129 70.9773 17.516 70.4129 16.9311C69.8451 16.3394 69.1576 16.0418 68.347 16.0418C67.5329 16.0418 66.8454 16.3359 66.2811 16.9174C65.7133 17.492 65.4328 18.2924 65.4328 19.3117C65.4328 20.3242 65.7133 21.1314 66.2811 21.7334C66.8454 22.3285 67.5329 22.6227 68.347 22.6227C69.1576 22.6227 69.8451 22.3319 70.4129 21.7471C70.9773 21.1553 71.2612 20.3481 71.2612 19.3254Z" fill="#1D7874"/>
<path d="M84.577 22.5269V25.9883H82.4973C81.0197 25.9883 79.8636 25.6292 79.0359 24.9075C78.2047 24.1789 77.7908 22.9989 77.7908 21.3639V16.0554H76.1764V12.676H77.7908V9.43348H81.868V12.676H84.5496V16.0554H81.868V21.405C81.868 21.8086 81.9638 22.0959 82.1553 22.2669C82.3468 22.4414 82.6649 22.5269 83.113 22.5269H84.577Z" fill="#1D7874"/>
<path d="M84.881 19.3117C84.881 17.9435 85.1341 16.7464 85.6472 15.7134C86.1671 14.6736 86.8717 13.8767 87.7678 13.3191C88.6606 12.765 89.6559 12.4845 90.7504 12.4845C91.6876 12.4845 92.5085 12.6761 93.2131 13.0592C93.9246 13.4423 94.4719 13.9451 94.855 14.5642V12.6761H98.9321V25.9884H94.855V24.1003C94.4513 24.7228 93.8972 25.2222 93.1858 25.6053C92.4812 25.9884 91.6603 26.1799 90.7231 26.1799C89.6456 26.1799 88.6606 25.8995 87.7678 25.3317C86.8717 24.7673 86.1671 23.9635 85.6472 22.9237C85.1341 21.8839 84.881 20.6799 84.881 19.3117ZM94.855 19.3254C94.855 18.3129 94.5711 17.516 94.0067 16.9311C93.4389 16.3394 92.7514 16.0418 91.9407 16.0418C91.1267 16.0418 90.4392 16.3359 89.8748 16.9174C89.307 17.492 89.0265 18.2924 89.0265 19.3117C89.0265 20.3242 89.307 21.1314 89.8748 21.7334C90.4392 22.3285 91.1267 22.6227 91.9407 22.6227C92.7514 22.6227 93.4389 22.3319 94.0067 21.7471C94.5711 21.1553 94.855 20.3481 94.855 19.3254Z" fill="#1D7874"/>
<path d="M106.803 26.1526C105.578 26.1526 104.48 25.9576 103.505 25.5642C102.537 25.1641 101.761 24.5757 101.179 23.7993C100.605 23.016 100.297 22.0754 100.263 20.9809H104.613C104.675 21.6034 104.891 22.0754 105.257 22.4038C105.619 22.7253 106.095 22.8826 106.679 22.8826C107.288 22.8826 107.767 22.7458 108.116 22.4722C108.461 22.1917 108.636 21.8018 108.636 21.3092C108.636 20.8988 108.492 20.5636 108.212 20.2968C107.938 20.0231 107.596 19.8008 107.186 19.6264C106.782 19.4451 106.207 19.2433 105.462 19.0244C104.384 18.6892 103.505 18.354 102.821 18.0256C102.137 17.6904 101.549 17.1979 101.056 16.548C100.564 15.8913 100.317 15.0396 100.317 13.9895C100.317 12.4298 100.878 11.2087 102 10.3228C103.129 9.44035 104.603 8.99569 106.419 8.99569C108.27 8.99569 109.758 9.44035 110.88 10.3228C112.008 11.2087 112.617 12.4401 112.699 14.0169H108.28C108.253 13.4696 108.054 13.0421 107.692 12.7308C107.326 12.423 106.857 12.2656 106.283 12.2656C105.79 12.2656 105.386 12.399 105.079 12.6624C104.778 12.9292 104.627 13.3054 104.627 13.798C104.627 14.3384 104.88 14.7557 105.393 15.0567C105.903 15.3577 106.7 15.686 107.788 16.0418C108.862 16.4078 109.737 16.7601 110.415 17.0953C111.088 17.4236 111.673 17.9093 112.166 18.5455C112.665 19.1851 112.918 20.006 112.918 21.0082C112.918 21.9591 112.672 22.8245 112.179 23.6078C111.694 24.3842 110.993 25.0033 110.072 25.4685C109.149 25.9268 108.061 26.1526 106.803 26.1526Z" fill="#1D7874"/>
<path d="M113.461 19.3117C113.461 17.9435 113.714 16.7464 114.227 15.7134C114.747 14.6736 115.452 13.8767 116.348 13.3191C117.241 12.765 118.236 12.4845 119.33 12.4845C120.268 12.4845 121.088 12.6761 121.793 13.0592C122.505 13.4423 123.052 13.9451 123.435 14.5642V12.6761H127.512V25.9884H123.435V24.1003C123.031 24.7228 122.477 25.2222 121.766 25.6053C121.061 25.9884 120.24 26.1799 119.303 26.1799C118.226 26.1799 117.241 25.8995 116.348 25.3317C115.452 24.7673 114.747 23.9635 114.227 22.9237C113.714 21.8839 113.461 20.6799 113.461 19.3117ZM123.435 19.3254C123.435 18.3129 123.151 17.516 122.587 16.9311C122.019 16.3394 121.331 16.0418 120.521 16.0418C119.707 16.0418 119.019 16.3359 118.455 16.9174C117.887 17.492 117.606 18.2924 117.606 19.3117C117.606 20.3242 117.887 21.1314 118.455 21.7334C119.019 22.3285 119.707 22.6227 120.521 22.6227C121.331 22.6227 122.019 22.3319 122.587 21.7471C123.151 21.1553 123.435 20.3481 123.435 19.3254Z" fill="#1D7874"/>
<path d="M137.503 12.5255C139.036 12.5255 140.26 13.0318 141.184 14.0442C142.104 15.0567 142.565 16.4454 142.565 18.2035V25.9884H138.516V18.7644C138.516 17.8717 138.283 17.1773 137.818 16.6848C137.353 16.1922 136.73 15.946 135.957 15.946C135.181 15.946 134.562 16.1922 134.096 16.6848C133.631 17.1773 133.399 17.8717 133.399 18.7644V25.9884H129.322V8.32526H133.399V14.4684C133.816 13.8766 134.384 13.408 135.095 13.0591C135.814 12.7034 136.617 12.5255 137.503 12.5255Z" fill="#1D7874"/>
<path d="M156.802 19.1202C156.802 19.5033 156.778 19.9 156.733 20.3105H147.498C147.56 21.1416 147.827 21.7744 148.292 22.2122C148.764 22.65 149.345 22.869 150.029 22.869C151.049 22.869 151.757 22.438 152.15 21.5692H156.501C156.272 22.4448 155.865 23.2349 155.283 23.9361C154.709 24.6407 153.983 25.1914 153.108 25.5916C152.232 25.985 151.254 26.1799 150.18 26.1799C148.873 26.1799 147.71 25.9029 146.691 25.3453C145.668 24.7912 144.871 23.9977 144.297 22.9647C143.729 21.9249 143.448 20.7141 143.448 19.3254C143.448 17.9504 143.729 16.7464 144.297 15.7134C144.861 14.6736 145.651 13.8767 146.664 13.3191C147.683 12.765 148.856 12.4845 150.18 12.4845C151.466 12.4845 152.608 12.7548 153.614 13.2918C154.616 13.8322 155.396 14.6018 155.954 15.604C156.518 16.6096 156.802 17.7794 156.802 19.1202ZM152.629 18.0393C152.629 17.3484 152.389 16.7943 151.917 16.3838C151.442 15.9665 150.843 15.7545 150.125 15.7545C149.441 15.7545 148.86 15.9563 148.388 16.3565C147.922 16.7498 147.635 17.3108 147.526 18.0393H152.629Z" fill="#1D7874"/>
<path d="M161.883 8.32526V25.9884H157.806V8.32526H161.883Z" fill="#1D7874"/>
<mask id="mask0_50_35" style="mask-type:luminance" maskUnits="userSpaceOnUse" x="4" y="0" width="37" height="36">
<path d="M4.21741 0H40.2174V36H4.21741V0Z" fill="white"/>
</mask>
<g mask="url(#mask0_50_35)">
<path d="M22.2157 36C12.317 36 4.21741 27.9004 4.21741 18.0017C4.21741 8.09957 12.317 0 22.2157 0C32.1178 0 40.2174 8.09957 40.2174 18.0017C40.2174 27.9004 32.1178 36 22.2157 36Z" fill="#F4A261"/>
</g>
<mask id="mask1_50_35" style="mask-type:luminance" maskUnits="userSpaceOnUse" x="0" y="5" width="45" height="26">
<path d="M0 5.55135H44.2125V30.8044H0V5.55135Z" fill="white"/>
</mask>
<g mask="url(#mask1_50_35)">
<path fill-rule="evenodd" clip-rule="evenodd" d="M14.4718 5.59581H33.3218C37.4777 5.59581 40.881 8.99913 40.881 13.1584C40.881 17.3142 37.4777 20.7175 33.3218 20.7175H0C0.95772 17.6391 3.84114 15.3851 7.22395 15.3851H33.3218C34.5463 15.3851 35.5485 14.3829 35.5485 13.1584C35.5485 11.9339 34.5463 10.9317 33.3218 10.9317H7.24789C8.20561 7.84987 11.0856 5.59581 14.4718 5.59581ZM44.2125 25.1709C43.2548 28.2527 40.3713 30.5034 36.9885 30.5034H18.1385C14.7557 30.5034 11.8723 28.2527 10.9146 25.1709H44.2125Z" fill="white"/>
</g>
</svg>
